<svg width="30" height="29" viewBox="0 0 30 29" fill="none" xmlns="http://www.w3.org/2000/svg">
<g filter="url(#filter0_d_15096_2628)">
<path d="M7.5 9.5C9.5625 9.5 10.5938 9.5 11.2338 8.85875C11.875 8.21875 11.875 7.1875 11.875 5.125C11.875 3.0625 11.875 2.03125 11.2338 1.39125C10.5938 0.75 9.5625 0.75 7.5 0.75C5.4375 0.75 4.40625 0.75 3.76625 1.39125C3.125 2.03125 3.125 3.0625 3.125 5.125C3.125 7.1875 3.125 8.21875 3.76625 8.85875C4.40625 9.5 5.4375 9.5 7.5 9.5ZM7.5 9.5V15.75M7.5 15.75C6.6425 15.75 5.95 16.44 4.57125 17.8213C3.19 19.2013 2.5 19.8925 2.5 20.75C2.5 21.6075 3.19 22.3 4.57125 23.6788C5.95125 25.06 6.6425 25.75 7.5 25.75C8.3575 25.75 9.05 25.06 10.4288 23.6788C11.81 22.2988 12.5 21.6075 12.5 20.75M7.5 15.75C8.3575 15.75 9.04875 16.44 10.4288 17.8213C11.81 19.2 12.5 19.8925 12.5 20.75M12.5 20.75H18.75M18.75 20.75C18.75 18.6875 18.75 17.6563 19.3913 17.0163C20.0313 16.375 21.0625 16.375 23.125 16.375C25.1875 16.375 26.2188 16.375 26.8588 17.0163C27.5 17.6563 27.5 18.6875 27.5 20.75C27.5 22.8125 27.5 23.8438 26.8588 24.4838C26.2188 25.125 25.1875 25.125 23.125 25.125C21.0625 25.125 20.0313 25.125 19.3913 24.4838C18.75 23.8438 18.75 22.8125 18.75 20.75Z" stroke="#9DFF3A" stroke-width="1.5" stroke-linecap="round" stroke-linejoin="round" shape-rendering="crispEdges"/>
</g>
<defs>
<filter id="filter0_d_15096_2628" x="-2.25" y="0" width="34.5" height="34.5" filterUnits="userSpaceOnUse" color-interpolation-filters="sRGB">
<feFlood flood-opacity="0" result="BackgroundImageFix"/>
<feColorMatrix in="SourceAlpha" type="matrix" values="0 0 0 0 0 0 0 0 0 0 0 0 0 0 0 0 0 0 127 0" result="hardAlpha"/>
<feOffset dy="4"/>
<feGaussianBlur stdDeviation="2"/>
<feComposite in2="hardAlpha" operator="out"/>
<feColorMatrix type="matrix" values="0 0 0 0 0 0 0 0 0 0 0 0 0 0 0 0 0 0 0.25 0"/>
<feBlend mode="normal" in2="BackgroundImageFix" result="effect1_dropShadow_15096_2628"/>
<feBlend mode="normal" in="SourceGraphic" in2="effect1_dropShadow_15096_2628" result="shape"/>
</filter>
</defs>
</svg>
