<svg width="48" height="47" viewBox="0 0 48 47" fill="none" xmlns="http://www.w3.org/2000/svg">
<path d="M8.35986 8.35535C9.15271 7.44791 10.0174 6.6059 10.9457 5.8375" stroke="#9DFF3A" stroke-width="1.5" stroke-miterlimit="10" stroke-linecap="round" stroke-linejoin="round"/>
<path d="M3.41064 18.0374C3.96197 15.6408 4.90644 13.3521 6.20571 11.2642" stroke="#9DFF3A" stroke-width="1.5" stroke-miterlimit="10" stroke-linecap="round" stroke-linejoin="round"/>
<path d="M10.8061 40.2202C5.93689 36.1228 2.84033 29.9683 2.84033 23.0869C2.84033 22.8256 2.84483 22.5652 2.85365 22.3061" stroke="#9DFF3A" stroke-width="1.5" stroke-miterlimit="10" stroke-linecap="round" stroke-linejoin="round"/>
<path d="M35.8403 42.6308C32.6495 44.4104 28.977 45.4238 25.0691 45.4238C21.1744 45.4238 17.5138 44.4173 14.3306 42.6489" stroke="#9DFF3A" stroke-width="1.5" stroke-miterlimit="10" stroke-linecap="round" stroke-linejoin="round"/>
<path d="M43.9175 11.2406C46.0592 14.6744 47.2975 18.7353 47.2975 23.0868C47.2975 29.9581 44.21 36.1047 39.353 40.2021" stroke="#9DFF3A" stroke-width="1.5" stroke-miterlimit="10" stroke-linecap="round" stroke-linejoin="round"/>
<path d="M38.9951 5.67615C39.8177 6.34145 40.5921 7.06417 41.3125 7.83887" stroke="#9DFF3A" stroke-width="1.5" stroke-miterlimit="10" stroke-linecap="round" stroke-linejoin="round"/>
<path d="M14.4697 3.44836C17.6203 1.72758 21.2313 0.750052 25.0694 0.750052C28.809 0.750052 32.3329 1.67808 35.4256 3.3174" stroke="#9DFF3A" stroke-width="1.5" stroke-miterlimit="10" stroke-linecap="round" stroke-linejoin="round"/>
<path d="M26.9297 8.55835C29.4333 7.00032 32.1912 5.77576 35.155 4.95835" stroke="#9DFF3A" stroke-width="1.5" stroke-miterlimit="10" stroke-linecap="round" stroke-linejoin="round"/>
<path d="M17.8228 17.1716C19.43 14.8895 21.3322 12.8301 23.4798 11.047" stroke="#9DFF3A" stroke-width="1.5" stroke-miterlimit="10" stroke-linecap="round" stroke-linejoin="round"/>
<path d="M12.2634 39.2883C11.4633 32.7465 12.7283 26.3611 15.5859 20.8508" stroke="#9DFF3A" stroke-width="1.5" stroke-miterlimit="10" stroke-linecap="round" stroke-linejoin="round"/>
<path d="M23.2073 8.55847C20.6191 6.94775 17.759 5.69347 14.6807 4.87691" stroke="#9DFF3A" stroke-width="1.5" stroke-miterlimit="10" stroke-linecap="round" stroke-linejoin="round"/>
<path d="M35.3702 22.5507C33.3928 18.1118 30.4138 14.1629 26.6587 11.0471" stroke="#9DFF3A" stroke-width="1.5" stroke-miterlimit="10" stroke-linecap="round" stroke-linejoin="round"/>
<path d="M37.7716 30.803C37.5603 29.3752 37.2516 27.9636 36.8477 26.5779" stroke="#9DFF3A" stroke-width="1.5" stroke-miterlimit="10" stroke-linecap="round" stroke-linejoin="round"/>
<path d="M37.8618 39.3948C38.0481 37.9133 38.1301 36.4206 38.1073 34.9277" stroke="#9DFF3A" stroke-width="1.5" stroke-miterlimit="10" stroke-linecap="round" stroke-linejoin="round"/>
<path d="M14.6126 18.5636C11.4105 18.5473 8.16006 18.8909 4.91162 19.6239" stroke="#9DFF3A" stroke-width="1.5" stroke-miterlimit="10" stroke-linecap="round" stroke-linejoin="round"/>
<path d="M34.3255 23.486C29.5584 20.9868 24.3207 19.3735 18.8721 18.7986" stroke="#9DFF3A" stroke-width="1.5" stroke-miterlimit="10" stroke-linecap="round" stroke-linejoin="round"/>
<path d="M45.5026 31.8922C43.2482 29.5387 40.7355 27.447 38.0122 25.6568" stroke="#9DFF3A" stroke-width="1.5" stroke-miterlimit="10" stroke-linecap="round" stroke-linejoin="round"/>
<path d="M37.2583 22.674C39.3882 19.2454 41.0274 15.5353 42.128 11.652" stroke="#9DFF3A" stroke-width="1.5" stroke-miterlimit="10" stroke-linecap="round" stroke-linejoin="round"/>
<path d="M14.6123 40.7686C22.6484 37.9971 29.6806 32.8943 34.8278 26.1871" stroke="#9DFF3A" stroke-width="1.5" stroke-miterlimit="10" stroke-linecap="round" stroke-linejoin="round"/>
<path d="M25.0683 11.7606C23.8895 11.7606 22.9307 10.7971 22.9307 9.61253C22.9307 8.42809 23.8895 7.46453 25.0683 7.46453C26.247 7.46453 27.2059 8.42809 27.2059 9.61253C27.2059 10.7971 26.247 11.7606 25.0683 11.7606Z" stroke="#9DFF3A" stroke-width="1.5" stroke-miterlimit="10" stroke-linecap="round" stroke-linejoin="round"/>
<path d="M16.7499 21.1987C15.5712 21.1987 14.6123 20.2351 14.6123 19.0506C14.6123 17.8662 15.5712 16.9025 16.7499 16.9025C17.9286 16.9025 18.8875 17.8662 18.8875 19.0506C18.8875 20.2351 17.9286 21.1987 16.7499 21.1987Z" stroke="#9DFF3A" stroke-width="1.5" stroke-miterlimit="10" stroke-linecap="round" stroke-linejoin="round"/>
<path d="M36.1913 26.6819C35.0126 26.6819 34.0537 25.7182 34.0537 24.5338C34.0537 23.3494 35.0126 22.3857 36.1913 22.3857C37.37 22.3857 38.3289 23.3494 38.3289 24.5338C38.3289 25.7182 37.37 26.6819 36.1913 26.6819Z" stroke="#9DFF3A" stroke-width="1.5" stroke-miterlimit="10" stroke-linecap="round" stroke-linejoin="round"/>
<path d="M12.5834 43.5602C11.4047 43.5602 10.4458 42.5966 10.4458 41.4121C10.4458 40.2276 11.4047 39.2641 12.5834 39.2641C13.7621 39.2641 14.7211 40.2276 14.7211 41.4121C14.7211 42.5966 13.7621 43.5602 12.5834 43.5602Z" stroke="#9DFF3A" stroke-width="1.5" stroke-miterlimit="10" stroke-linecap="round" stroke-linejoin="round"/>
<path d="M37.6771 43.6826C36.4984 43.6826 35.5396 42.719 35.5396 41.5345C35.5396 40.3501 36.4984 39.3864 37.6771 39.3864C38.8559 39.3864 39.8148 40.3501 39.8148 41.5345C39.8148 42.719 38.8559 43.6826 37.6771 43.6826Z" stroke="#9DFF3A" stroke-width="1.5" stroke-miterlimit="10" stroke-linecap="round" stroke-linejoin="round"/>
<path d="M42.6611 11.652C41.4824 11.652 40.5234 10.6883 40.5234 9.50388C40.5234 8.31945 41.4824 7.35579 42.6611 7.35579C43.8398 7.35579 44.7987 8.31945 44.7987 9.50388C44.7987 10.6883 43.8398 11.652 42.6611 11.652Z" stroke="#9DFF3A" stroke-width="1.5" stroke-miterlimit="10" stroke-linecap="round" stroke-linejoin="round"/>
<path d="M37.2343 6.60754C36.0556 6.60754 35.0967 5.64398 35.0967 4.45945C35.0967 3.27501 36.0556 2.31145 37.2343 2.31145C38.413 2.31145 39.372 3.27501 39.372 4.45945C39.372 5.64398 38.413 6.60754 37.2343 6.60754Z" stroke="#9DFF3A" stroke-width="1.5" stroke-miterlimit="10" stroke-linecap="round" stroke-linejoin="round"/>
<path d="M12.5834 6.60754C11.4047 6.60754 10.4458 5.64398 10.4458 4.45945C10.4458 3.27501 11.4047 2.31145 12.5834 2.31145C13.7621 2.31145 14.7211 3.27501 14.7211 4.45945C14.7211 5.64398 13.7621 6.60754 12.5834 6.60754Z" stroke="#9DFF3A" stroke-width="1.5" stroke-miterlimit="10" stroke-linecap="round" stroke-linejoin="round"/>
<path d="M2.84072 22.3055C1.662 22.3055 0.703125 21.342 0.703125 20.1574C0.703125 18.973 1.662 18.0094 2.84072 18.0094C4.01944 18.0094 4.97831 18.973 4.97831 20.1574C4.97831 21.342 4.01944 22.3055 2.84072 22.3055Z" stroke="#9DFF3A" stroke-width="1.5" stroke-miterlimit="10" stroke-linecap="round" stroke-linejoin="round"/>
</svg>
