<svg width="32" height="32" viewBox="0 0 32 32" fill="none" xmlns="http://www.w3.org/2000/svg">
<path fill-rule="evenodd" clip-rule="evenodd" d="M15.5294 31.2195C24.1061 31.2195 31.0588 24.2308 31.0588 15.6097C31.0588 6.98872 24.1061 0 15.5294 0C6.95274 0 0 6.98872 0 15.6097C0 24.2308 6.95274 31.2195 15.5294 31.2195ZM17.9263 12.0605C19.2501 10.7299 19.2501 8.57253 17.9263 7.24188C16.6025 5.91124 14.4563 5.91124 13.1325 7.24188C11.8088 8.57253 11.8088 10.7299 13.1325 12.0605L15.5294 14.4698L17.9263 12.0605ZM19.0604 18.0191C20.3842 19.3497 22.5304 19.3497 23.8542 18.0191C25.178 16.6884 25.178 14.5311 23.8542 13.2004C22.5304 11.8699 20.3842 11.8699 19.0604 13.2004L16.6635 15.6098L19.0604 18.0191ZM17.9263 23.9776C19.2501 22.647 19.2501 20.4896 17.9263 19.159L15.5294 16.7497L13.1325 19.159C11.8088 20.4896 11.8088 22.647 13.1325 23.9776C14.4563 25.3083 16.6025 25.3083 17.9263 23.9776ZM7.20458 18.0191C5.88082 16.6884 5.88082 14.5311 7.20458 13.2004C8.52841 11.8699 10.6747 11.8699 11.9985 13.2004L14.3953 15.6098L11.9985 18.0191C10.6747 19.3497 8.52841 19.3497 7.20458 18.0191Z" fill="#999999"/>
</svg>
